<svg width="48" height="48" viewBox="0 0 48 48" fill="none" xmlns="http://www.w3.org/2000/svg">
<path fill-rule="evenodd" clip-rule="evenodd" d="M31.9999 14C31.0488 14 30.2296 14.0009 29.467 14.0753L29.4518 14.0768L29.4366 14.0778C24.5457 14.4045 22.034 15.682 20.6979 17.3166C19.3431 18.9742 18.9999 21.2267 18.9999 24V24.0168L18.9994 24.0335C18.9473 25.5837 19.1447 27.132 19.5839 28.6194C20.1073 30.1792 21.0763 31.4795 22.9131 32.4199C24.8026 33.3872 27.6643 34 31.9999 34H34.1894L38.9977 39.4161L38.9999 39.4186V33.2901L39.6701 33.056C42.046 32.2258 43.3242 30.9875 44.0461 29.5279C44.7928 28.018 44.9999 26.1626 44.9999 24C44.9999 20.9977 44.6 18.6074 42.9498 16.919C41.2916 15.2225 38.1358 14 31.9999 14ZM31.9719 12L31.9999 12C38.3041 12 42.1482 13.2375 44.3801 15.521C46.6198 17.8126 46.9999 20.9223 46.9999 24C46.9999 26.2374 46.797 28.477 45.8388 30.4146C44.9365 32.239 43.4121 33.7044 40.9999 34.6905V39.42L40.9999 39.4214C40.9993 39.8274 40.8752 40.2236 40.644 40.5574C40.4128 40.8911 40.0855 41.1466 39.7057 41.2899C39.3258 41.4332 38.9113 41.4574 38.5173 41.3595C38.1239 41.2616 37.7695 41.0466 37.5012 40.7428C37.5007 40.7424 37.5003 40.7419 37.4999 40.7414L33.2905 36H31.9999C27.5155 36 24.2923 35.3728 22.0017 34.2001C19.6647 33.0037 18.359 31.2695 17.6812 29.2362L17.6759 29.2203L17.6712 29.2043C17.1691 27.5112 16.9425 25.7484 16.9999 23.9834C17.0012 21.1421 17.3303 18.2765 19.1494 16.0509C20.989 13.8002 24.1579 12.4282 29.2882 12.0832C30.1522 12 31.058 12 31.9719 12Z" fill="white"/>
<path fill-rule="evenodd" clip-rule="evenodd" d="M30.5001 17.9997C30.5001 20.4479 30.2523 22.815 29.0809 24.7602C27.8936 26.7319 25.8102 28.1884 22.324 28.9288L22.1162 27.9506C25.41 27.2511 27.2166 25.9176 28.2243 24.2443C29.2479 22.5445 29.5001 20.4115 29.5001 17.9997V16.4697H30.5001V17.9997Z" fill="white"/>
<path fill-rule="evenodd" clip-rule="evenodd" d="M3.97743 9.87051C6.06585 7.73377 9.73792 6.5 16 6.5C20.4472 6.5 23.5801 7.1236 25.7704 8.24494C27.9839 9.37817 29.2055 11.0052 29.8443 12.9219L28.8957 13.2381C28.3345 11.5548 27.2811 10.1418 25.3146 9.13506C23.3249 8.1164 20.3728 7.5 16 7.5C9.82208 7.5 6.49415 8.72623 4.69257 10.5695C2.89495 12.4087 2.5 14.9788 2.5 18C2.5 20.1813 2.70605 22.1327 3.50568 23.7496C4.29285 25.3412 5.68195 26.6604 8.16493 27.528L8.5 27.6451L8.5 33.4193C8.5 33.4194 8.5 33.4192 8.5 33.4193C8.5002 33.5207 8.53123 33.6199 8.58897 33.7033C8.64677 33.7867 8.72859 33.8506 8.82357 33.8864C8.91854 33.9222 9.02215 33.9283 9.12065 33.9038C9.21915 33.8793 9.30786 33.8254 9.375 33.7493L9.37609 33.748L14.0353 28.5H15.69V29.5H14.4847L10.125 34.4107C10.1249 34.4109 10.1251 34.4106 10.125 34.4107C9.92365 34.6388 9.65725 34.8008 9.36195 34.8742C9.06645 34.9477 8.75559 34.9295 8.47069 34.8221C8.18578 34.7146 7.94031 34.523 7.76692 34.2727C7.59354 34.0224 7.50044 33.7252 7.5 33.4207L7.5 28.3501C5.00357 27.4042 3.48849 25.9706 2.60932 24.1929C1.70395 22.3623 1.5 20.2187 1.5 18C1.5 14.9412 1.88505 12.0113 3.97743 9.87051Z" fill="white"/>
</svg>
