<svg width="48" height="48" viewBox="0 0 48 48" fill="none" xmlns="http://www.w3.org/2000/svg">
<path fill-rule="evenodd" clip-rule="evenodd" d="M24 2C24.3162 2 24.6137 2.1495 24.8024 2.40317C24.9352 2.58175 25.2085 2.84256 25.662 3.17044C26.1031 3.48933 26.6662 3.83727 27.3297 4.20096C28.6561 4.92796 30.3323 5.68998 32.1235 6.38344C35.746 7.78584 39.6555 8.83721 42 8.83721C42.5523 8.83721 43 9.28492 43 9.83721V28.3953C43 30.4355 41.7202 32.5246 40.0821 34.4048C38.4077 36.3267 36.1899 38.2194 33.9762 39.8849C31.7565 41.555 29.509 43.0203 27.7527 44.0848C26.8743 44.6172 26.1138 45.0524 25.5364 45.3648C25.2483 45.5206 25.0001 45.649 24.8025 45.7446C24.6396 45.8234 24.4236 45.9242 24.2461 45.9692C24.0846 46.0103 23.9154 46.0103 23.7539 45.9692C23.5764 45.9242 23.3604 45.8234 23.1975 45.7446C22.9999 45.649 22.7517 45.5206 22.4636 45.3648C21.8862 45.0524 21.1257 44.6172 20.2473 44.0848C18.491 43.0203 16.2435 41.555 14.0238 39.8849C11.8101 38.2194 9.59227 36.3267 7.91789 34.4048C6.2798 32.5246 5 30.4355 5 28.3953V9.83721C5 9.28492 5.44772 8.83721 6 8.83721C8.34448 8.83721 12.254 7.78584 15.8765 6.38344C17.6677 5.68998 19.3439 4.92796 20.6703 4.20096C21.3338 3.83727 21.8969 3.48933 22.338 3.17044C22.7915 2.84256 23.0648 2.58175 23.1976 2.40317C23.3863 2.1495 23.6838 2 24 2ZM7 10.7921V28.3953C7 29.6663 7.8452 31.2767 9.42586 33.091C10.9702 34.8637 13.0649 36.6606 15.2262 38.2867C17.3815 39.9083 19.5715 41.3365 21.284 42.3745C22.1399 42.8933 22.8717 43.3116 23.4153 43.6057C23.6509 43.7332 23.847 43.835 24 43.9107C24.153 43.835 24.3491 43.7332 24.5847 43.6057C25.1283 43.3116 25.8601 42.8933 26.716 42.3745C28.4285 41.3365 30.6185 39.9083 32.7738 38.2867C34.9351 36.6606 37.0298 34.8637 38.5741 33.091C40.1548 31.2767 41 29.6663 41 28.3953V10.7921C38.3044 10.5644 34.6424 9.50324 31.4015 8.24854C29.5502 7.53182 27.7902 6.7341 26.3684 5.95478C25.6579 5.56531 25.0189 5.17344 24.4903 4.79125C24.32 4.66815 24.1554 4.54197 24 4.41307C23.8446 4.54197 23.68 4.66815 23.5097 4.79125C22.9811 5.17344 22.3421 5.56531 21.6316 5.95478C20.2098 6.7341 18.4498 7.53182 16.5985 8.24854C13.3576 9.50324 9.69557 10.5644 7 10.7921Z" fill="white"/>
<path fill-rule="evenodd" clip-rule="evenodd" d="M11.5 18.187V27.1456C11.5 28.15 12.1584 29.3667 13.3057 30.6844C14.4349 31.9814 15.9606 33.2898 17.5269 34.4685C19.0902 35.6449 20.6779 36.6804 21.9199 37.433C22.5408 37.8093 23.0727 38.1133 23.4696 38.3278C23.6684 38.4353 23.8304 38.5188 23.9512 38.5771C23.9617 38.5822 23.9716 38.5869 23.981 38.5914C25.6629 37.7515 27.2741 36.7831 28.7997 35.6953L29.2068 35.405L29.7874 36.2192L29.3803 36.5095C27.7495 37.6723 26.0238 38.7022 24.2206 39.5887C24.1139 39.6412 23.992 39.6539 23.8768 39.6246C23.774 39.5985 23.6381 39.5365 23.5162 39.4775C23.377 39.4103 23.2006 39.3192 22.994 39.2075C22.5802 38.9838 22.0338 38.6713 21.4017 38.2883C20.1377 37.5223 18.5211 36.4682 16.9256 35.2675C15.3331 34.0691 13.7457 32.7128 12.5515 31.3411C11.3753 29.9902 10.5 28.5343 10.5 27.1456V18.187H11.5Z" fill="white"/>
<path fill-rule="evenodd" clip-rule="evenodd" d="M23.9984 8.36035C24.156 8.35984 24.3046 8.43366 24.3995 8.55955C24.5141 8.7118 24.7318 8.9125 25.0661 9.15121C25.3941 9.38536 25.809 9.63836 26.2934 9.90081C27.2618 10.4255 28.482 10.9741 29.7828 11.4727C32.4041 12.4774 35.262 13.2441 37.0001 13.2441C37.2762 13.2441 37.5001 13.4679 37.5001 13.7441V27.1743C37.5001 28.6668 36.489 30.2456 35.1581 31.6932L34.8198 32.0613L34.0836 31.3845L34.422 31.0164C35.7312 29.5923 36.5001 28.2604 36.5001 27.1743V14.2275C34.5745 14.1064 31.8478 13.3351 29.4249 12.4064C28.0944 11.8965 26.8327 11.3304 25.817 10.78C25.3094 10.505 24.8567 10.2304 24.4851 9.96509C24.3104 9.84037 24.1475 9.7134 24.0025 9.58502C23.7712 9.7927 23.4907 9.99954 23.1825 10.2019C22.6519 10.5503 21.9963 10.9127 21.2662 11.2702C19.8055 11.9855 18.0169 12.6954 16.27 13.2443L15.793 13.3942L15.4932 12.4402L15.9702 12.2903C17.6733 11.7551 19.4147 11.0634 20.8264 10.3721C21.5326 10.0264 22.1488 9.68431 22.6336 9.36602C23.1296 9.04034 23.448 8.76508 23.5987 8.56217C23.6927 8.43566 23.8408 8.36087 23.9984 8.36035Z" fill="white"/>
</svg>
