<svg width="48" height="48" viewBox="0 0 48 48" fill="none" xmlns="http://www.w3.org/2000/svg">
<mask id="mask0_1888_52906" style="mask-type:alpha" maskUnits="userSpaceOnUse" x="0" y="0" width="48" height="48">
<rect width="48" height="48" fill="white"/>
</mask>
<g mask="url(#mask0_1888_52906)">
<path fill-rule="evenodd" clip-rule="evenodd" d="M39.8944 21.1888L43.334 23.221C43.5889 23.3716 43.797 23.5898 43.9394 23.8498C44.0817 24.1097 44.1542 24.4032 44.151 24.6999C44.1478 24.9966 44.0691 25.2885 43.9211 25.5451C43.773 25.8019 43.5599 26.0154 43.3017 26.1599L27.7249 34.8566C26.5993 35.4852 25.3408 35.8072 24.0645 35.7914C22.7882 35.7756 21.5374 35.4226 20.4263 34.7666L4.66626 25.4568C4.4114 25.3063 4.20325 25.088 4.06083 24.828C3.91849 24.5682 3.84604 24.2746 3.84922 23.9779C3.8524 23.6812 3.93113 23.3893 4.07916 23.1327C4.22728 22.8759 4.44031 22.6624 4.69859 22.5179L8.11252 20.6123L9.10912 21.2013L5.18697 23.3905C5.09076 23.4445 5.00611 23.5271 4.94538 23.6323C4.88448 23.7379 4.85053 23.8611 4.84916 23.9886C4.8478 24.1162 4.8791 24.2403 4.93786 24.3476C4.99654 24.4547 5.07943 24.5395 5.17487 24.5958L20.9347 33.9055C21.8976 34.474 22.9778 34.7779 24.0769 34.7915C25.176 34.8051 26.2624 34.528 27.2374 33.9835L42.8133 25.2873C42.9096 25.2334 42.9941 25.1509 43.0549 25.0455C43.1158 24.9399 43.1497 24.8167 43.1511 24.6892C43.1525 24.5616 43.1211 24.4375 43.0624 24.3302C43.0037 24.2231 42.9208 24.1384 42.8254 24.082L38.9526 21.7939L38.8736 21.7591L39.8944 21.1888Z" fill="white"/>
<path fill-rule="evenodd" clip-rule="evenodd" d="M39.8944 31.5765L43.334 33.6087C43.5889 33.7593 43.797 33.9775 43.9394 34.2375C44.0817 34.4973 44.1542 34.7909 44.151 35.0876C44.1478 35.3843 44.0691 35.6762 43.9211 35.9328C43.773 36.1896 43.5599 36.4031 43.3017 36.5476L27.7249 45.2443C26.5993 45.8729 25.3408 46.1949 24.0645 46.1791C22.7882 46.1633 21.5374 45.8103 20.4263 45.1543L4.66626 35.8445C4.4114 35.694 4.20325 35.4757 4.06083 35.2157C3.91849 34.9559 3.84604 34.6623 3.84922 34.3656C3.8524 34.0689 3.93113 33.777 4.07916 33.5204C4.22728 33.2636 4.44031 33.0501 4.69859 32.9056L8.11252 31L9.10912 31.589L5.18697 33.7782C5.09076 33.8322 5.00611 33.9148 4.94538 34.02C4.88448 34.1256 4.85053 34.2488 4.84916 34.3763C4.8478 34.5039 4.8791 34.628 4.93786 34.7353C4.99654 34.8424 5.07943 34.9271 5.17487 34.9835L20.9347 44.2932C21.8976 44.8617 22.9778 45.1656 24.0769 45.1792C25.176 45.1928 26.2624 44.9157 27.2374 44.3712L42.8133 35.675C42.9096 35.6211 42.9941 35.5386 43.0549 35.4332C43.1158 35.3276 43.1497 35.2044 43.1511 35.0769C43.1525 34.9493 43.1211 34.8252 43.0624 34.7179C43.0037 34.6108 42.9208 34.5261 42.8254 34.4697L38.9526 32.1816L38.8736 32.1468L39.8944 31.5765Z" fill="white"/>
<path fill-rule="evenodd" clip-rule="evenodd" d="M19.774 5.05934L6.52172 12.4622C6.40012 12.5304 6.29033 12.6364 6.21054 12.7746C6.13044 12.9133 6.08499 13.0767 6.08307 13.247C6.08115 13.4173 6.12291 13.5821 6.20015 13.7234C6.27708 13.8641 6.38438 13.973 6.50498 14.0446L19.9715 22.0027C21.2342 22.7485 22.6491 23.1465 24.0879 23.1643C25.5267 23.1822 26.9496 22.8196 28.228 22.1057L41.4822 14.7017C41.6043 14.6337 41.7141 14.528 41.7943 14.3894C41.8747 14.2505 41.9203 14.0868 41.9222 13.9162C41.9241 13.7455 41.8822 13.5804 41.8047 13.439C41.7274 13.2979 41.6195 13.1888 41.4983 13.1174L28.0305 5.16227C26.7678 4.41643 25.3529 4.01851 23.9141 4.00063C22.4754 3.98275 21.0523 4.34542 19.774 5.05934ZM18.7988 3.3132C20.3785 2.43096 22.1457 1.9785 23.939 2.00079C25.7322 2.02307 27.4886 2.51931 29.0477 3.44024L42.5137 11.3944C42.9544 11.6541 43.3134 12.0304 43.5586 12.4778C43.8036 12.9248 43.9278 13.4293 43.9221 13.9387C43.9164 14.4482 43.7807 14.9498 43.5254 15.391C43.2699 15.8326 42.902 16.2004 42.455 16.4492L29.2033 23.8517C27.6236 24.734 25.8563 25.1865 24.0631 25.1642C22.2698 25.1419 20.5135 24.6457 18.9544 23.7247L5.4873 15.7663C5.04802 15.5062 4.68957 15.1295 4.44532 14.6828C4.20125 14.2364 4.07746 13.7328 4.0832 13.2244C4.08894 12.716 4.22406 12.2153 4.47845 11.7746C4.73302 11.3337 5.0996 10.9661 5.54525 10.7168L18.7988 3.3132Z" fill="white"/>
<path fill-rule="evenodd" clip-rule="evenodd" d="M23.6274 13.5071C22.4323 14.1178 20.8538 14.4529 19.1934 14.4405C17.5025 14.4306 15.8515 14.0696 14.5664 13.4107C15.8526 12.7851 17.4967 12.4574 19.1723 12.4834C20.8479 12.5094 22.4124 12.8728 23.6274 13.5071ZM24.129 13.219C23.0404 12.5168 22.4277 11.6118 22.4089 10.6932C22.3902 9.77456 22.9609 8.91653 24.0051 8.27734C25.0726 8.97835 25.6748 9.86234 25.7005 10.7673C25.7263 11.6723 25.1744 12.5452 24.129 13.219V13.219ZM24.5967 13.4923C25.766 12.8914 27.2662 12.5761 28.8062 12.6009C30.3462 12.6256 31.802 12.9717 32.9397 13.5813C31.8546 14.1685 30.4093 14.4912 28.8787 14.4789C27.3317 14.469 25.7976 14.1191 24.5979 13.4923H24.5967ZM24.1138 13.7704C25.1977 14.469 25.7953 15.3777 25.821 16.3111C25.8467 17.2446 25.2878 18.1656 24.2249 18.8852C23.1187 18.1854 22.4955 17.2693 22.4779 16.3161C22.4604 15.3628 23.0532 14.4578 24.115 13.7704H24.1138Z" fill="white"/>
</g>
</svg>
